<svg width="316" height="76" viewBox="0 0 316 76" fill="none" xmlns="http://www.w3.org/2000/svg">
<path d="M38.9183 0H41.7284C51.4841 0.155705 61.0807 3.03624 67.9734 8.13557C65.4284 10.043 62.8304 11.8725 60.3385 13.7799C56.468 11.2107 51.8022 9.2255 46.7123 8.52483C39.1834 7.35705 31.0713 8.40805 24.7619 11.5611C17.8693 14.8698 13.2036 20.4752 12.1962 26.4698C11.0828 32.3866 13.3626 38.6148 18.6116 43.2081C23.6485 47.6846 31.3364 50.4873 39.2895 50.6819C46.7123 50.9933 54.4532 49.3195 59.8613 45.5047C64.1029 42.8188 66.0646 38.7315 66.7009 34.7611C57.8995 34.7611 49.0982 34.8 40.2968 34.7611V26.7423H77.3579C79.2666 35.345 76.5096 45.0376 67.6022 51.1879C61.664 55.5477 53.4458 58.1168 45.0687 58.6228C36.9566 59.2067 28.5794 58.0779 21.3687 55.1973C12.7264 51.8107 5.83376 46.0886 2.44047 39.3544C-0.740739 33.1651 -0.793759 26.1584 2.17537 19.9302C4.8794 14.247 10.0754 9.2255 16.7559 5.72215C23.1713 2.25772 30.9653 0.350336 38.9183 0Z" fill="#A5ABB2"/>
<path d="M251.529 2.16846H262.875V57.755C259.111 57.755 255.293 57.794 251.529 57.7161C251.582 39.2262 251.529 20.6973 251.529 2.16846Z" fill="#A5ABB2"/>
<path d="M102.595 21.4369C109.594 20.4638 117.176 21.5537 122.955 24.6289C128.204 27.3537 131.863 31.6356 132.976 36.3067C134.408 41.7175 132.605 47.6342 127.833 51.9161C122.69 56.704 114.26 59.2732 106.042 58.8839C98.5129 58.5725 91.1961 55.8087 86.7424 51.2933C81.7055 46.3107 80.486 39.4597 83.2431 33.6208C86.0001 27.3537 93.7941 22.5658 102.595 21.4369ZM104.186 28.8329C101.323 29.3779 98.672 30.5846 96.7632 32.2973C91.6203 36.8128 91.9384 44.1698 97.6116 48.3738C100.846 50.7873 105.724 51.9161 110.23 51.2544C114.419 50.7094 118.077 48.6463 120.092 45.9215C123.591 41.2893 122.584 34.9054 117.229 31.2852C113.783 28.9497 108.746 27.9765 104.186 28.8329Z" fill="#A5ABB2"/>
<path d="M158.797 21.4369C166.803 20.3081 175.551 21.943 181.543 26.0691C191.298 32.4919 192.359 44.5201 184.035 51.9161C178.998 56.5873 170.833 59.1564 162.774 58.8839C155.086 58.7282 147.504 55.9255 142.944 51.2933C137.801 46.194 136.688 39.1873 139.604 33.2315C142.52 27.1591 150.155 22.5268 158.797 21.4369ZM160.388 28.8329C157.525 29.3779 154.874 30.5846 152.965 32.2584C147.875 36.696 148.087 43.9362 153.548 48.1792C156.782 50.7094 161.819 51.955 166.485 51.2544C170.621 50.6705 174.332 48.6463 176.347 45.9215C179.793 41.2503 178.786 34.8664 173.378 31.2463C169.931 28.9107 164.894 27.9765 160.388 28.8329Z" fill="#A5ABB2"/>
<path d="M206.462 23.6946C212.559 20.8919 220.671 20.1134 227.246 22.5268C229.314 23.1886 231.01 24.3174 232.654 25.4463C232.707 24.3953 232.654 23.3054 232.707 22.2154C236.259 22.2544 239.812 22.2154 243.417 22.2544V56.5872C243.364 61.7644 241.561 67.253 236.471 71.0289C230.904 75.194 222.368 76.4785 214.68 75.6221C206.462 74.7268 199.304 70.3282 196.123 64.7617C199.304 63.6329 202.644 62.7376 205.932 61.6866C207.787 64.8785 211.552 67.6033 216.271 68.2262C220.989 68.849 226.451 67.9926 229.526 65.1121C232.813 62.1537 232.813 58.1054 232.654 54.4852C230.215 56.2369 227.405 57.794 224.012 58.3778C216.642 59.896 208.53 58.0275 202.857 54.3685C197.13 50.7094 193.737 45.0651 194.055 39.4597C194.214 33.1148 199.092 27.0033 206.462 23.6946ZM217.437 28.6772C214.203 29.0664 211.181 30.3899 209.113 32.2195C204.129 36.5792 204.129 43.547 209.166 47.8289C212.029 50.3591 216.642 51.7604 221.095 51.4101C225.284 51.0986 229.155 49.1523 231.222 46.4664C234.722 41.9121 234.138 35.7228 229.42 31.7523C226.504 29.3 221.838 28.0933 217.437 28.6772Z" fill="#A5ABB2"/>
<path d="M276.501 25.6799C282.864 21.3201 292.672 19.8409 300.838 22.1376C308.579 24.2785 313.509 29.6893 316.001 35.2557C304.496 38.7591 293.044 42.2235 281.538 45.7268C283.129 47.9456 285.568 49.9698 288.855 50.7873C293.468 51.994 298.982 51.5658 302.852 49.3081C304.39 48.4517 305.609 47.3228 306.776 46.2329C309.692 47.6732 312.608 49.0745 315.524 50.5148C311.389 55.0691 304.443 58.2611 296.967 58.7671C288.696 59.5067 279.895 57.1711 274.54 52.4222C265.738 44.9483 266.587 32.4141 276.501 25.6799ZM282.175 32.8812C280.372 34.7886 279.63 37.1242 279.683 39.4208C287.37 37.0852 295.058 34.7497 302.746 32.3752C301.474 30.1953 298.399 28.8718 295.27 28.5215C290.234 27.8597 284.985 29.845 282.175 32.8812Z" fill="#A5ABB2"/>
</svg>
