<svg width="270" height="110" viewBox="0 0 270 110" fill="none" xmlns="http://www.w3.org/2000/svg">
<rect y="17" width="110" height="93" rx="21" fill="#6436F1"/>
<path d="M61.2459 45.16V54.36H79.2459V66.28H61.2459V76.44H81.6459V89H45.5659V32.6H81.6459V45.16H61.2459Z" fill="white"/>
<path d="M125.828 69.5H132.398V74H119.948V52.85H125.828V69.5ZM140.564 57.56V61.01H147.314V65.48H140.564V69.29H148.214V74H134.684V52.85H148.214V57.56H140.564ZM164.499 70.55H156.999L155.859 74H149.679L157.389 52.85H164.169L171.849 74H165.639L164.499 70.55ZM163.029 66.05L160.749 59.21L158.499 66.05H163.029ZM184.476 74L180.276 66.2H179.646V74H173.766V52.85H183.036C184.736 52.85 186.176 53.15 187.356 53.75C188.536 54.33 189.426 55.14 190.026 56.18C190.626 57.2 190.926 58.35 190.926 59.63C190.926 61.07 190.526 62.34 189.726 63.44C188.946 64.52 187.796 65.29 186.276 65.75L191.046 74H184.476ZM179.646 62.18H182.556C183.356 62.18 183.956 61.99 184.356 61.61C184.756 61.23 184.956 60.68 184.956 59.96C184.956 59.28 184.746 58.75 184.326 58.37C183.926 57.97 183.336 57.77 182.556 57.77H179.646V62.18ZM213.19 74H207.31L199.48 62.18V74H193.6V52.85H199.48L207.31 64.82V52.85H213.19V74ZM222.419 52.85V74H216.539V52.85H222.419ZM245.358 74H239.478L231.648 62.18V74H225.768V52.85H231.648L239.478 64.82V52.85H245.358V74ZM262.207 59.81C261.867 59.25 261.397 58.82 260.797 58.52C260.217 58.22 259.527 58.07 258.727 58.07C257.247 58.07 256.077 58.55 255.217 59.51C254.377 60.47 253.957 61.76 253.957 63.38C253.957 65.2 254.407 66.59 255.307 67.55C256.227 68.49 257.557 68.96 259.297 68.96C261.357 68.96 262.827 68.03 263.707 66.17H257.797V61.94H268.777V67.64C268.317 68.76 267.637 69.81 266.737 70.79C265.857 71.77 264.737 72.58 263.377 73.22C262.017 73.84 260.467 74.15 258.727 74.15C256.607 74.15 254.727 73.7 253.087 72.8C251.467 71.88 250.207 70.61 249.307 68.99C248.427 67.35 247.987 65.48 247.987 63.38C247.987 61.3 248.427 59.45 249.307 57.83C250.207 56.19 251.467 54.92 253.087 54.02C254.707 53.1 256.577 52.64 258.697 52.64C261.357 52.64 263.557 53.28 265.297 54.56C267.037 55.84 268.117 57.59 268.537 59.81H262.207Z" fill="black"/>
<path d="M11.9634 32.16H26.6634L38.1834 45.3L26.6634 58.38H11.9634L23.4834 45.3L11.9634 32.16Z" fill="white"/>
</svg>
