<svg width="377" height="81" viewBox="0 0 377 81" fill="none" xmlns="http://www.w3.org/2000/svg">
<path d="M377 36.4102V29.7801H368.767V19.4728L368.49 19.5581L360.756 21.9243L360.604 21.9706V29.7805H348.398V25.4297C348.398 23.4038 348.851 21.8535 349.744 20.8196C350.63 19.7981 351.898 19.2788 353.516 19.2788C354.678 19.2788 355.882 19.5527 357.094 20.0928L357.397 20.2284V13.246L357.254 13.1935C356.124 12.7872 354.587 12.5826 352.682 12.5826C350.28 12.5826 348.098 13.1052 346.195 14.141C344.291 15.1782 342.793 16.6588 341.744 18.5414C340.698 20.4217 340.168 22.5935 340.168 24.9968V29.7801H334.435V36.4102H340.168V64.3417H348.398V36.4102H360.604V54.1602C360.604 61.4705 364.052 65.175 370.852 65.175C371.97 65.175 373.146 65.0441 374.347 64.7877C375.569 64.5244 376.402 64.2615 376.892 63.9807L377 63.9165V57.2251L376.666 57.4465C376.219 57.744 375.663 57.9873 375.011 58.1682C374.356 58.3523 373.809 58.4446 373.385 58.4446C371.792 58.4446 370.613 58.0154 369.882 57.1682C369.142 56.3134 368.767 54.8185 368.767 52.7273V36.4102H377ZM316.056 58.4457C313.069 58.4457 310.713 57.4552 309.054 55.5041C307.384 53.5431 306.538 50.7474 306.538 47.1953C306.538 43.5305 307.384 40.6622 309.054 38.6666C310.715 36.6841 313.048 35.6779 315.989 35.6779C318.842 35.6779 321.114 36.6389 322.741 38.5357C324.377 40.4423 325.207 43.2876 325.207 46.9951C325.207 50.7481 324.426 53.631 322.887 55.5595C321.359 57.4734 319.061 58.4457 316.056 58.4457ZM316.422 28.9475C310.723 28.9475 306.196 30.6174 302.968 33.911C299.743 37.2049 298.108 41.7632 298.108 47.4604C298.108 52.8717 299.704 57.2244 302.853 60.3954C306.002 63.5675 310.287 65.1743 315.588 65.1743C321.113 65.1743 325.549 63.481 328.775 60.1419C332.001 56.8064 333.635 52.2911 333.635 46.727C333.635 41.2311 332.102 36.846 329.076 33.6962C326.048 30.5449 321.79 28.9475 316.422 28.9475ZM284.838 28.9475C280.962 28.9475 277.755 29.9391 275.305 31.8942C272.841 33.861 271.591 36.4405 271.591 39.5619C271.591 41.1844 271.86 42.6257 272.391 43.8481C272.926 45.0746 273.753 46.1545 274.851 47.0607C275.941 47.9597 277.624 48.9013 279.853 49.8594C281.728 50.6307 283.126 51.2831 284.014 51.7974C284.882 52.3014 285.498 52.8079 285.846 53.3014C286.184 53.7842 286.355 54.445 286.355 55.2605C286.355 57.5825 284.616 58.7123 281.038 58.7123C279.711 58.7123 278.197 58.4351 276.539 57.8888C274.893 57.3508 273.339 56.5628 271.932 55.5526L271.59 55.3075V63.2312L271.715 63.2896C272.88 63.8271 274.348 64.2804 276.079 64.6371C277.806 64.9941 279.375 65.1758 280.738 65.1758C284.945 65.1758 288.333 64.1794 290.804 62.2126C293.292 60.2323 294.553 57.592 294.553 54.3626C294.553 52.0329 293.874 50.0352 292.536 48.4239C291.208 46.8259 288.902 45.3587 285.686 44.0619C283.123 43.0334 281.482 42.1797 280.805 41.5243C280.152 40.8912 279.82 39.9959 279.82 38.8621C279.82 37.857 280.229 37.0517 281.069 36.3997C281.916 35.7443 283.094 35.411 284.572 35.411C285.943 35.411 287.346 35.6276 288.741 36.0521C290.136 36.4766 291.36 37.0452 292.382 37.7406L292.719 37.9704V30.4541L292.59 30.3986C291.647 29.9942 290.403 29.6481 288.892 29.3673C287.389 29.0883 286.025 28.9475 284.838 28.9475ZM250.135 58.4457C247.149 58.4457 244.793 57.4552 243.134 55.5041C241.463 53.5431 240.619 50.7481 240.619 47.1953C240.619 43.5305 241.464 40.6622 243.135 38.6666C244.795 36.6841 247.127 35.6779 250.069 35.6779C252.922 35.6779 255.194 36.6389 256.821 38.5357C258.457 40.4423 259.287 43.2876 259.287 46.9951C259.287 50.7481 258.506 53.631 256.967 55.5595C255.438 57.4734 253.141 58.4457 250.135 58.4457ZM250.502 28.9475C244.802 28.9475 240.275 30.6174 237.049 33.911C233.824 37.2049 232.187 41.7632 232.187 47.4604C232.187 52.8739 233.785 57.2244 236.933 60.3954C240.082 63.5675 244.367 65.1743 249.669 65.1743C255.192 65.1743 259.63 63.481 262.856 60.1419C266.081 56.8064 267.716 52.2911 267.716 46.727C267.716 41.2311 266.182 36.846 263.155 33.6962C260.127 30.5449 255.87 28.9475 250.502 28.9475ZM219.694 35.7654V29.7801H211.565V64.341H219.694V46.6617C219.694 43.6556 220.376 41.1859 221.721 39.3205C223.049 37.4773 224.818 36.5433 226.979 36.5433C227.711 36.5433 228.533 36.6641 229.423 36.9029C230.304 37.1403 230.943 37.3982 231.319 37.6695L231.661 37.9171V29.721L231.529 29.6645C230.772 29.3428 229.701 29.1806 228.346 29.1806C226.303 29.1806 224.474 29.837 222.908 31.1295C221.534 32.2655 220.541 33.8231 219.781 35.7654H219.694ZM197.006 28.9475C193.276 28.9475 189.949 29.7473 187.12 31.3239C184.284 32.9041 182.091 35.1601 180.599 38.0287C179.114 40.8905 178.36 44.2333 178.36 47.9612C178.36 51.2266 179.091 54.2233 180.536 56.8644C181.982 59.5099 184.029 61.5795 186.62 63.0149C189.207 64.4486 192.197 65.1754 195.508 65.1754C199.371 65.1754 202.67 64.403 205.315 62.8796L205.421 62.8184V55.3703L205.08 55.6197C203.882 56.4924 202.543 57.189 201.102 57.6908C199.665 58.1922 198.356 58.4457 197.207 58.4457C194.017 58.4457 191.456 57.4475 189.597 55.4797C187.734 53.5092 186.79 50.7423 186.79 47.2606C186.79 43.757 187.775 40.9189 189.716 38.8249C191.651 36.737 194.217 35.6779 197.341 35.6779C200.013 35.6779 202.617 36.5827 205.08 38.3697L205.421 38.6173V30.7695L205.311 30.7075C204.384 30.1886 203.12 29.76 201.55 29.4351C199.987 29.1109 198.458 28.9475 197.006 28.9475ZM172.761 29.7805H164.631V64.341H172.761V29.7805ZM168.779 15.0574C167.441 15.0574 166.274 15.513 165.315 16.4156C164.352 17.3207 163.864 18.4604 163.864 19.8054C163.864 21.1292 164.346 22.2481 165.3 23.1292C166.248 24.0077 167.418 24.453 168.779 24.453C170.14 24.453 171.315 24.0077 172.274 23.1307C173.239 22.2481 173.728 21.1296 173.728 19.8054C173.728 18.5074 173.252 17.3794 172.314 16.452C171.376 15.5264 170.186 15.0574 168.779 15.0574ZM148.495 27.2305V64.341H156.791V16.1154H145.308L130.713 51.9359L116.548 16.1154H104.598V64.3406H112.394V27.2269H112.662L127.619 64.341H133.503L148.227 27.2305H148.495Z" fill="#706D6E"/>
<path d="M38.2446 38.2446H0V0H38.2446V38.2446Z" fill="#F1511B"/>
<path d="M80.471 38.2446H42.2271V0H80.471V38.2446Z" fill="#80CC28"/>
<path d="M38.2435 80.4859H0V42.2417H38.2435V80.4859Z" fill="#00ADEF"/>
<path d="M80.471 80.4859H42.2271V42.2417H80.471V80.4859Z" fill="#FBBC09"/>
</svg>
