<svg width="273" height="54" viewBox="0 0 273 54" fill="none" xmlns="http://www.w3.org/2000/svg">
<path d="M273 24.4102V17.7801H264.767V7.47279L264.49 7.55813L256.756 9.92425L256.604 9.97057V17.7805H244.398V13.4297C244.398 11.4038 244.851 9.8535 245.744 8.8196C246.63 7.79809 247.898 7.27877 249.516 7.27877C250.678 7.27877 251.882 7.55266 253.094 8.09277L253.397 8.22843V1.24602L253.254 1.1935C252.124 0.787234 250.587 0.582642 248.682 0.582642C246.28 0.582642 244.098 1.10525 242.195 2.14098C240.291 3.17816 238.793 4.65882 237.744 6.54136C236.698 8.42172 236.168 10.5935 236.168 12.9968V17.7801H230.435V24.4102H236.168V52.3417H244.398V24.4102H256.604V42.1602C256.604 49.4705 260.052 53.175 266.852 53.175C267.97 53.175 269.146 53.0441 270.347 52.7877C271.569 52.5244 272.402 52.2615 272.892 51.9807L273 51.9165V45.2251L272.666 45.4465C272.219 45.744 271.663 45.9873 271.011 46.1682C270.356 46.3523 269.809 46.4446 269.385 46.4446C267.792 46.4446 266.613 46.0154 265.882 45.1682C265.142 44.3134 264.767 42.8185 264.767 40.7273V24.4102H273ZM212.056 46.4457C209.069 46.4457 206.713 45.4552 205.054 43.5041C203.384 41.5431 202.538 38.7474 202.538 35.1953C202.538 31.5305 203.384 28.6622 205.054 26.6666C206.715 24.6841 209.048 23.6779 211.989 23.6779C214.842 23.6779 217.114 24.6389 218.741 26.5357C220.377 28.4423 221.207 31.2876 221.207 34.9951C221.207 38.7481 220.426 41.631 218.887 43.5595C217.359 45.4734 215.061 46.4457 212.056 46.4457ZM212.422 16.9475C206.723 16.9475 202.196 18.6174 198.968 21.911C195.743 25.2049 194.108 29.7632 194.108 35.4604C194.108 40.8717 195.704 45.2244 198.853 48.3954C202.002 51.5675 206.287 53.1743 211.588 53.1743C217.113 53.1743 221.549 51.481 224.775 48.1419C228.001 44.8064 229.635 40.2911 229.635 34.727C229.635 29.2311 228.102 24.846 225.076 21.6962C222.048 18.5449 217.79 16.9475 212.422 16.9475ZM180.838 16.9475C176.962 16.9475 173.755 17.9391 171.305 19.8942C168.841 21.861 167.591 24.4405 167.591 27.5619C167.591 29.1844 167.86 30.6257 168.391 31.8481C168.926 33.0746 169.753 34.1545 170.851 35.0607C171.941 35.9597 173.624 36.9013 175.853 37.8594C177.728 38.6307 179.126 39.2831 180.014 39.7974C180.882 40.3014 181.498 40.8079 181.846 41.3014C182.184 41.7842 182.355 42.445 182.355 43.2605C182.355 45.5825 180.616 46.7123 177.038 46.7123C175.711 46.7123 174.197 46.4351 172.539 45.8888C170.893 45.3508 169.339 44.5628 167.932 43.5526L167.59 43.3075V51.2312L167.715 51.2896C168.88 51.8271 170.348 52.2804 172.079 52.6371C173.806 52.9941 175.375 53.1758 176.738 53.1758C180.945 53.1758 184.333 52.1794 186.804 50.2126C189.292 48.2323 190.553 45.592 190.553 42.3626C190.553 40.0329 189.874 38.0352 188.536 36.4239C187.208 34.8259 184.902 33.3587 181.686 32.0619C179.123 31.0334 177.482 30.1797 176.805 29.5243C176.152 28.8912 175.82 27.9959 175.82 26.8621C175.82 25.857 176.229 25.0517 177.069 24.3997C177.916 23.7443 179.094 23.411 180.572 23.411C181.943 23.411 183.346 23.6276 184.741 24.0521C186.136 24.4766 187.36 25.0452 188.382 25.7406L188.719 25.9704V18.4541L188.59 18.3986C187.647 17.9942 186.403 17.6481 184.892 17.3673C183.389 17.0883 182.025 16.9475 180.838 16.9475ZM146.135 46.4457C143.149 46.4457 140.793 45.4552 139.134 43.5041C137.463 41.5431 136.619 38.7481 136.619 35.1953C136.619 31.5305 137.464 28.6622 139.135 26.6666C140.795 24.6841 143.127 23.6779 146.069 23.6779C148.922 23.6779 151.194 24.6389 152.821 26.5357C154.457 28.4423 155.287 31.2876 155.287 34.9951C155.287 38.7481 154.506 41.631 152.967 43.5595C151.438 45.4734 149.141 46.4457 146.135 46.4457ZM146.502 16.9475C140.802 16.9475 136.275 18.6174 133.049 21.911C129.824 25.2049 128.187 29.7632 128.187 35.4604C128.187 40.8739 129.785 45.2244 132.933 48.3954C136.082 51.5675 140.367 53.1743 145.669 53.1743C151.192 53.1743 155.63 51.481 158.856 48.1419C162.081 44.8064 163.716 40.2911 163.716 34.727C163.716 29.2311 162.182 24.846 159.155 21.6962C156.127 18.5449 151.87 16.9475 146.502 16.9475ZM115.694 23.7654V17.7801H107.565V52.341H115.694V34.6617C115.694 31.6556 116.376 29.1859 117.721 27.3205C119.049 25.4773 120.818 24.5433 122.979 24.5433C123.711 24.5433 124.533 24.6641 125.423 24.9029C126.304 25.1403 126.943 25.3982 127.319 25.6695L127.661 25.9171V17.721L127.529 17.6645C126.772 17.3428 125.701 17.1806 124.346 17.1806C122.303 17.1806 120.474 17.837 118.908 19.1295C117.534 20.2655 116.541 21.8231 115.781 23.7654H115.694ZM93.0058 16.9475C89.276 16.9475 85.9493 17.7473 83.1197 19.3239C80.2842 20.9041 78.0913 23.1601 76.5993 26.0287C75.1139 28.8905 74.3597 32.2333 74.3597 35.9612C74.3597 39.2266 75.091 42.2233 76.5362 44.8644C77.9822 47.5099 80.0289 49.5795 82.6197 51.0149C85.2068 52.4486 88.1969 53.1754 91.5076 53.1754C95.3712 53.1754 98.6698 52.403 101.315 50.8796L101.421 50.8184V43.3703L101.08 43.6197C99.8817 44.4924 98.5429 45.189 97.1024 45.6908C95.6655 46.1922 94.3555 46.4457 93.2067 46.4457C90.0167 46.4457 87.4559 45.4475 85.597 43.4797C83.7342 41.5092 82.7896 38.7423 82.7896 35.2606C82.7896 31.757 83.7746 28.9189 85.7159 26.8249C87.6513 24.737 90.217 23.6779 93.3409 23.6779C96.013 23.6779 98.6169 24.5827 101.08 26.3697L101.421 26.6173V18.7695L101.311 18.7075C100.384 18.1886 99.1198 17.76 97.5502 17.4351C95.9871 17.1109 94.4583 16.9475 93.0058 16.9475ZM68.7606 17.7805H60.6309V52.341H68.7606V17.7805ZM64.7789 3.05745C63.4408 3.05745 62.2738 3.51295 61.315 4.41557C60.3523 5.32073 59.8639 6.4604 59.8639 7.80539C59.8639 9.12922 60.3464 10.2481 61.3001 11.1292C62.2476 12.0077 63.4182 12.453 64.7793 12.453C66.1399 12.453 67.315 12.0077 68.2737 11.1307C69.2387 10.2481 69.7281 9.12959 69.7281 7.80539C69.7281 6.50744 69.2519 5.37945 68.3135 4.45204C67.3759 3.52644 66.1862 3.05745 64.7789 3.05745ZM44.4947 15.2305V52.341H52.7914V4.11542H41.3083L26.7126 39.9359L12.5483 4.11542H0.597656V52.3406H8.39443V15.2269H8.66212L23.6193 52.341H29.5032L44.227 15.2305H44.4947Z" fill="#706D6E"/>
</svg>
