<svg width="2370" height="1896" viewBox="0 0 2370 1896" fill="none" xmlns="http://www.w3.org/2000/svg">
<path fill-rule="evenodd" clip-rule="evenodd" d="M2013.79 0C2210.06 0 2369.17 159.107 2369.17 355.375V1539.96C2369.17 1736.23 2210.06 1895.33 2013.79 1895.33H355.375C159.107 1895.33 0 1736.23 0 1539.96V355.375C0 159.107 159.107 0 355.375 0H2013.79ZM2132.25 394.229L1262.59 1155.27C1221.65 1191.1 1162.2 1194.08 1118.18 1164.23L1106.58 1155.27L236.917 394.348V1539.96C236.917 1605.38 289.952 1658.42 355.375 1658.42H2013.79C2079.21 1658.42 2132.25 1605.38 2132.25 1539.96V394.229ZM1952.19 236.917H416.736L1184.58 908.721L1952.19 236.917Z" fill="black"/>
</svg>
