<svg width="1656" height="1236" viewBox="0 0 1656 1236" fill="none" xmlns="http://www.w3.org/2000/svg">
<path d="M1397.6 1235.84H257.367C189.128 1235.75 123.71 1208.6 75.4622 1160.34C27.2144 1112.09 0.0761584 1046.66 0 978.425V257.367C0.076183 189.132 27.216 123.714 75.4651 75.4651C123.714 27.216 189.132 0.076183 257.367 0H1397.6C1465.84 0.0761584 1531.26 27.2144 1579.52 75.4622C1627.78 123.71 1654.93 189.128 1655.01 257.367V978.425C1654.94 1046.67 1627.79 1112.1 1579.54 1160.36C1531.28 1208.62 1465.85 1235.76 1397.6 1235.84ZM257.367 119.929C220.928 119.967 185.992 134.459 160.225 160.225C134.459 185.992 119.967 220.928 119.929 257.367V978.425C119.954 1014.87 134.441 1049.82 160.208 1075.6C185.976 1101.37 220.919 1115.87 257.367 1115.91H1397.6C1434.05 1115.87 1469 1101.38 1494.77 1075.6C1520.55 1049.83 1535.05 1014.88 1535.09 978.425V257.367C1535.04 220.923 1520.53 185.987 1494.76 160.222C1468.98 134.457 1434.04 119.967 1397.6 119.929H257.367Z" fill="black"/>
<path d="M826.835 779.343C776.523 779.839 727.513 763.361 687.718 732.571L46.4363 221.532C33.9998 211.614 26.0123 197.163 24.231 181.356C22.4497 165.549 27.0205 149.682 36.938 137.246C46.8554 124.809 61.307 116.822 77.1137 115.041C92.9203 113.259 108.787 117.83 121.224 127.748L762.314 638.787C781.252 652.22 803.911 659.407 827.129 659.347C850.348 659.287 872.968 651.982 891.837 638.451L1525.01 127.987C1537.38 118.006 1553.22 113.349 1569.02 115.041C1584.83 116.732 1599.32 124.633 1609.3 137.006C1619.28 149.379 1623.94 165.21 1622.24 181.017C1620.55 196.823 1612.65 211.311 1600.28 221.292L967.296 731.756C927.227 763.088 877.697 779.868 826.835 779.343Z" fill="black"/>
</svg>
