<svg width="2162" height="2585" viewBox="0 0 2162 2585" fill="none" xmlns="http://www.w3.org/2000/svg">
<path d="M1803.04 2584.91H358.885C263.751 2584.71 172.57 2546.83 105.307 2479.55C38.044 2412.27 0.178171 2321.09 0 2225.95V1151.17C0.178171 1056.04 38.044 964.849 105.307 897.572C172.57 830.294 263.751 792.409 358.885 792.211H1803.04C1898.19 792.39 1989.39 830.266 2056.67 897.545C2123.95 964.825 2161.82 1056.02 2162 1151.17V2225.95C2161.82 2321.1 2123.95 2412.3 2056.67 2479.58C1989.39 2546.86 1898.19 2584.73 1803.04 2584.91ZM358.885 979.521C313.379 979.561 269.75 997.66 237.58 1029.84C205.41 1062.03 187.329 1105.67 187.309 1151.17V2225.95C187.329 2271.46 205.41 2315.1 237.58 2347.28C269.75 2379.46 313.379 2397.56 358.885 2397.6H1803.04C1848.55 2397.56 1892.19 2379.47 1924.37 2347.28C1956.55 2315.1 1974.65 2271.46 1974.69 2225.95V1151.17C1974.65 1105.66 1956.55 1062.02 1924.37 1029.84C1892.19 997.658 1848.55 979.561 1803.04 979.521H358.885Z" fill="black"/>
<path d="M1683.16 979.521C1658.32 979.521 1634.5 969.653 1616.94 952.09C1599.37 934.526 1589.51 910.705 1589.51 885.866V626.255C1588.81 567.84 1575.5 510.265 1550.48 457.476C1525.45 404.687 1489.31 357.933 1444.53 320.416C1343.8 232.941 1214.4 185.578 1081 187.352C800.485 187.352 572.268 384.251 572.268 626.255V885.866C572.268 910.705 562.4 934.526 544.837 952.09C527.273 969.653 503.452 979.521 478.613 979.521C453.774 979.521 429.953 969.653 412.389 952.09C394.825 934.526 384.958 910.705 384.958 885.866V626.255C384.733 281.006 697.016 0.0422956 1081 0.0422956C1260.16 -1.88498 1433.78 62.1122 1568.83 179.859C1633.64 234.828 1685.8 303.159 1721.74 380.169C1757.68 457.18 1776.54 541.049 1777.04 626.03V885.641C1777.07 897.978 1774.66 910.199 1769.96 921.602C1765.25 933.006 1758.33 943.367 1749.61 952.09C1740.89 960.813 1730.53 967.727 1719.12 972.435C1707.72 977.142 1695.5 979.55 1683.16 979.521Z" fill="black"/>
<path d="M1081 1912.77C1056.16 1912.77 1032.34 1902.9 1014.78 1885.34C997.212 1867.78 987.345 1843.96 987.345 1819.12V1569.7C987.345 1544.86 997.212 1521.03 1014.78 1503.47C1032.34 1485.91 1056.16 1476.04 1081 1476.04C1105.84 1476.04 1129.66 1485.91 1147.22 1503.47C1164.79 1521.03 1174.65 1544.86 1174.65 1569.7V1819.49C1174.56 1844.26 1164.64 1867.99 1147.09 1885.47C1129.54 1902.96 1105.77 1912.77 1081 1912.77Z" fill="black"/>
</svg>
