<?xml version="1.0" encoding="iso-8859-1"?>
<!-- Uploaded to: SVG Repo, www.svgrepo.com, Generator: SVG Repo Mixer Tools -->
<svg fill="#000000" height="800px" width="800px" version="1.1" id="Layer_1" xmlns="http://www.w3.org/2000/svg" xmlns:xlink="http://www.w3.org/1999/xlink" 
	 viewBox="0 0 503.607 503.607" xml:space="preserve">
<g transform="translate(1 1)">
	<g>
		<g>
			<path d="M385.098,57.754h-41.967v-8.393c0-9.233-7.554-16.787-16.787-16.787h-25.18V24.18c0-14.269-10.911-25.18-25.18-25.18
				h-50.361c-14.269,0-25.18,11.751-25.18,25.18v8.393h-25.18c-9.233,0-16.787,7.554-16.787,16.787v8.393h-41.967
				c-23.502,0-41.967,18.466-41.967,41.967v360.918c0,23.502,18.466,41.967,41.967,41.967h268.59
				c23.502,0,41.967-18.466,41.967-41.967V99.721C427.066,76.22,408.6,57.754,385.098,57.754z M175.262,49.361h33.574
				c5.036,0,8.393-3.357,8.393-8.393V24.18c0-5.036,3.357-8.393,8.393-8.393h50.361c5.036,0,8.393,4.197,8.393,8.393v16.787
				c0,5.036,3.357,8.393,8.393,8.393h33.574v16.787v41.967H175.262V66.148V49.361z M410.279,460.639
				c0,14.269-10.911,25.18-25.18,25.18h-268.59c-14.269,0-25.18-10.911-25.18-25.18V99.721c0-14.269,10.911-25.18,25.18-25.18
				h41.967v33.574c0,9.233,7.554,16.787,16.787,16.787h151.082c9.233,0,16.787-7.554,16.787-16.787V74.541h41.967
				c14.269,0,25.18,10.911,25.18,25.18V460.639z"/>
			<path d="M335.577,198.764c-10.072-9.233-26.02-9.233-35.253,0L167.708,325.505l-17.297,68.497l-6.204,6.204
				c-3.357,3.357-3.357,8.393,0,11.751c1.679,1.679,3.357,2.518,5.875,2.518c2.518,0,4.197-0.839,5.875-2.518l7.386-7.386
				l66.476-16.115L362.436,255c8.393-8.393,8.393-20.984,0-29.377L335.577,198.764z M187.338,330.421l87.794-83.803l36.512,36.512
				l-85.798,85.798L187.338,330.421z M179.875,346.698l29.59,29.59l-39.239,9.649L179.875,346.698z M350.685,244.088l-27.171,27.171
				l-36.236-36.236l24.797-23.67c3.357-3.357,8.393-3.357,11.751,0l26.859,26.859C352.364,239.892,352.364,242.41,350.685,244.088z"
				/>
		</g>
	</g>
</g>
</svg>