<?xml version="1.0" ?>
<!-- Uploaded to: SVG Repo, www.svgrepo.com, Generator: SVG Repo Mixer Tools -->
<svg width="800px" height="800px" viewBox="0 0 64 64" xmlns="http://www.w3.org/2000/svg">
<g data-name="24_Video Tutorail" id="_24_Video_Tutorail">
<path d="M61,54H3a1,1,0,0,1-1-1V11a1,1,0,0,1,1-1H61a1,1,0,0,1,1,1V53A1,1,0,0,1,61,54Z" style="fill:#fdfeff"/>
<path d="M4,53V11a1,1,0,0,1,1-1H3a1,1,0,0,0-1,1V53a1,1,0,0,0,1,1H5A1,1,0,0,1,4,53Z" style="fill:#dfeaef"/>
<path d="M62,20H2V11a1,1,0,0,1,1-1H61a1,1,0,0,1,1,1Z" style="fill:#0455bf"/>
<path d="M2,11v9H4V10H3A1,1,0,0,0,2,11Z" style="fill:#004787"/>
<rect height="2" rx="1" style="fill:#f74e0c" width="2" x="6" y="14"/>
<rect height="2" rx="1" style="fill:#03a65a" width="2" x="10" y="14"/>
<rect height="2" rx="1" style="fill:#febc00" width="2" x="14" y="14"/>
<path d="M32,48A12,12,0,1,1,44,36,12.013,12.013,0,0,1,32,48Z" style="fill:#0455bf"/>
<path d="M34,46a11.983,11.983,0,0,1-9.416-19.416A11.988,11.988,0,1,0,41.416,43.416,11.931,11.931,0,0,1,34,46Z" style="fill:#004787"/>
<path d="M29,42a1,1,0,0,1-1-1V31a1,1,0,0,1,1.53-.848l8,5a1,1,0,0,1,0,1.7l-8,5A1,1,0,0,1,29,42Z" style="fill:#febc00"/>
<path d="M30.53,39.848A1,1,0,0,1,29,39V30a.986.986,0,0,0-.484.122A1,1,0,0,0,28,31V41a1,1,0,0,0,1.53.848l8-5a.995.995,0,0,0,.215-1.51Z" style="fill:#edaa03"/>
</g>
</svg>