<svg width="313" height="344" viewBox="0 0 313 344" fill="none" xmlns="http://www.w3.org/2000/svg">
<path d="M293.75 62.5H237.506V43.75C237.493 32.1508 232.88 21.0303 224.678 12.8284C216.476 4.62655 205.355 0.0130106 193.756 0H118.756C107.157 0.0130106 96.0365 4.62655 87.8346 12.8284C79.6327 21.0303 75.0191 32.1508 75.0061 43.75V62.5H18.75C13.7772 62.5 9.00806 64.4754 5.49175 67.9917C1.97544 71.5081 0 76.2772 0 81.25C0 86.2228 1.97544 90.9919 5.49175 94.5083C9.00806 98.0246 13.7772 100 18.75 100H25V312.5C25.0093 320.785 28.3047 328.728 34.1632 334.587C40.0217 340.445 47.9649 343.741 56.25 343.75H256.25C264.535 343.741 272.478 340.445 278.337 334.587C284.195 328.728 287.491 320.785 287.5 312.5V100H293.75C298.723 100 303.492 98.0246 307.008 94.5083C310.525 90.9919 312.5 86.2228 312.5 81.25C312.5 76.2772 310.525 71.5081 307.008 67.9917C303.492 64.4754 298.723 62.5 293.75 62.5ZM112.506 43.75C112.508 42.093 113.167 40.5044 114.339 39.3327C115.51 38.161 117.099 37.5019 118.756 37.5H193.756C195.413 37.5019 197.002 38.161 198.173 39.3327C199.345 40.5044 200.004 42.093 200.006 43.75V62.5H112.506V43.75ZM250 306.25H62.5V100H250V306.25ZM137.506 150V250C137.506 254.973 135.531 259.742 132.014 263.258C128.498 266.775 123.729 268.75 118.756 268.75C113.783 268.75 109.014 266.775 105.498 263.258C101.982 259.742 100.006 254.973 100.006 250V150C100.006 145.027 101.982 140.258 105.498 136.742C109.014 133.225 113.783 131.25 118.756 131.25C123.729 131.25 128.498 133.225 132.014 136.742C135.531 140.258 137.506 145.027 137.506 150ZM212.506 150V250C212.506 254.973 210.531 259.742 207.014 263.258C203.498 266.775 198.729 268.75 193.756 268.75C188.783 268.75 184.014 266.775 180.498 263.258C176.982 259.742 175.006 254.973 175.006 250V150C175.006 145.027 176.982 140.258 180.498 136.742C184.014 133.225 188.783 131.25 193.756 131.25C198.729 131.25 203.498 133.225 207.014 136.742C210.531 140.258 212.506 145.027 212.506 150Z" fill="white"/>
</svg>
