<svg width="1462" height="1180" viewBox="0 0 1462 1180" fill="none" xmlns="http://www.w3.org/2000/svg">
<path d="M519.083 519.083C597.047 519.083 660.25 455.881 660.25 377.917C660.25 299.952 597.047 236.75 519.083 236.75C441.119 236.75 377.917 299.952 377.917 377.917C377.917 455.881 441.119 519.083 519.083 519.083Z" stroke="black" stroke-width="50"/>
<path d="M801.417 801.417C801.417 879.383 801.417 942.583 519.083 942.583C236.75 942.583 236.75 879.383 236.75 801.417C236.75 723.45 363.155 660.25 519.083 660.25C675.009 660.25 801.417 723.45 801.417 801.417Z" stroke="black" stroke-width="50"/>
<path d="M1436.67 589.667C1436.67 855.85 1436.67 988.949 1353.97 1071.64C1271.28 1154.33 1138.18 1154.33 872 1154.33H589.667C323.48 1154.33 190.387 1154.33 107.693 1071.64C25 988.949 25 855.85 25 589.667C25 323.48 25 190.387 107.693 107.693C190.387 25 323.48 25 589.667 25H872C1138.18 25 1271.28 25 1353.97 107.693C1387.12 140.84 1406.98 182.083 1418.88 236.75" stroke="black" stroke-width="50" stroke-linecap="round"/>
<path d="M1224.92 589.667H942.583" stroke="black" stroke-width="50" stroke-linecap="round"/>
<path d="M1224.92 377.917H872" stroke="black" stroke-width="50" stroke-linecap="round"/>
<path d="M1224.92 801.417H1013.17" stroke="black" stroke-width="50" stroke-linecap="round"/>
</svg>
