<svg width="948" height="758" viewBox="0 0 948 758" fill="none" xmlns="http://www.w3.org/2000/svg">
<path fill-rule="evenodd" clip-rule="evenodd" d="M379.2 0H568.8C747.555 0 836.937 -5.64754e-06 892.466 55.5031C948 111.007 948 200.338 948 379C948 557.661 948 646.996 892.466 702.495C836.937 758 747.555 758 568.8 758H379.2C200.443 758 111.065 758 55.5324 702.495C5.65052e-06 646.996 0 557.661 0 379C0 200.338 5.65052e-06 111.007 55.5324 55.5031C111.065 -5.64754e-06 200.443 0 379.2 0ZM533.25 236.875C533.25 217.252 549.167 201.344 568.8 201.344H805.8C825.433 201.344 841.35 217.252 841.35 236.875C841.35 256.498 825.433 272.406 805.8 272.406H568.8C549.167 272.406 533.25 256.498 533.25 236.875ZM580.65 379C580.65 359.377 596.567 343.469 616.2 343.469H805.8C825.433 343.469 841.35 359.377 841.35 379C841.35 398.623 825.433 414.531 805.8 414.531H616.2C596.567 414.531 580.65 398.623 580.65 379ZM628.05 521.125C628.05 501.502 643.967 485.594 663.6 485.594H805.8C825.433 485.594 841.35 501.502 841.35 521.125C841.35 540.748 825.433 556.656 805.8 556.656H663.6C643.967 556.656 628.05 540.748 628.05 521.125ZM426.6 236.875C426.6 289.205 384.158 331.625 331.8 331.625C279.443 331.625 237 289.205 237 236.875C237 184.546 279.443 142.125 331.8 142.125C384.158 142.125 426.6 184.546 426.6 236.875ZM331.8 615.875C521.4 615.875 521.4 573.455 521.4 521.125C521.4 468.795 436.511 426.375 331.8 426.375C227.087 426.375 142.2 468.795 142.2 521.125C142.2 573.455 142.2 615.875 331.8 615.875Z" fill="black"/>
</svg>
